<?xml version="1.0" encoding="utf-8"?>
<!DOCTYPE svg PUBLIC "-//W3C//DTD SVG 1.1//EN" "http://www.w3.org/Graphics/SVG/1.1/DTD/svg11.dtd">
<svg version="1.1" id="Layer_1" xmlns="http://www.w3.org/2000/svg" xmlns:xlink="http://www.w3.org/1999/xlink" x="0px" y="0px"
	 width="354.33px" height="354.33px" viewBox="0 0 354.33 354.33" enable-background="new 0 0 354.33 354.33" xml:space="preserve">
<path fill="#9E2B4B" d="M351.161,177.2c0,95.966-77.795,173.761-173.761,173.761c-95.965,0-173.76-77.795-173.76-173.761
	C3.64,81.235,81.435,3.44,177.4,3.44C273.366,3.44,351.161,81.235,351.161,177.2"/>
<path fill="#FFFFFF" d="M300.88,185.26c0,30.223-10.81,57.6-27.875,79.313c-21.76,27.688-54.022,45.875-90.625,45.875
	c-20.633,0-40.466-5.164-57-15.188c-16.392-9.938-29.522-24.531-39.687-41.5c-3.464-5.781-6.88-11.713-9.563-18
	c-2.235-5.236-4.631-10.922-6.312-16.688c-3.313-11.359-4.969-23.393-4.969-35.438c0-28.935,9.441-55.104,25.281-75.75
	c4.334-5.648,9.46-10.696,14.625-15.5c4.453-4.142,9.111-8.434,14.083-11.875c18.275-12.648,39.843-19.25,63.667-19.25
	c18.024,0,34.657,4.628,49.958,12.167c4.396,2.166,8.633,4.754,12.887,7.427c6.69,4.204,13.219,8.858,18.905,14.25
	c8.569,8.124,15.509,17.565,20.366,27.846C293.568,141.885,300.88,162.429,300.88,185.26"/>
<path fill="#9E2B4B" d="M285.031,168.197c-1.789-15.108-6.252-29.155-13.807-41.437c-5.492-8.928-11.531-16.187-18.47-23.812
	c-4.657-5.119-9.869-10.05-15.78-14.094c-3.672-2.511-8-4.694-11.906-6.594c-13.6-6.61-28.42-9.812-44.438-9.812
	c-10.969,0-21.324,1.996-30.906,5.156c-8.913,2.94-17.143,6.843-24.969,12.188c-4.418,3.017-9.137,5.993-13.094,9.625
	c-4.589,4.212-8.399,8.984-12.25,13.937c-2.844,3.658-5.649,7.746-8.031,11.906c-9.407,16.43-15.375,36.005-15.375,56.25
	c0,8.475,0.547,26.451,8.375,46c2.004,5.002,4.45,10.047,7.625,15.105c2.23,3.551,4.842,7.207,7.542,10.645
	c1.3,1.656,2.78,3.371,4.354,5.207c4.999,5.836,11.673,12.297,20.229,16.543c6.53,3.242,13.045,6.059,19.209,8.48
	c3.63,1.426,7.048,2.885,10.52,3.75c6.826,1.697,12.861,2.982,18.058,3.797c0.526,0.082,1.729-0.559,1.729-1.012
	s-0.235-0.813-1.875-1.781c-1.641-0.969-31.391-16.359-31.391-56.484s25.665-63.875,37.02-73s32.23-20.25,54.73-20.25
	s38,11.25,49.875,28.375c0.547,0.787,1.155,1.612,1.642,2.016C284.303,169.448,285.165,168.982,285.031,168.197"/>
<path fill="#9E2B4B" d="M155.88,237.094c0-10.877,2.085-23.793,8.417-35.75c8.073-15.248,22.266-29.153,39.333-37.583
	c9.746-4.814,20.513-8.167,32.917-8.167c40.833,0,44.833,23.5,44.833,36c0,4.416-0.165,17.59-5.5,32
	c-5.922,15.994-18.228,32.438-35.25,44.166c-11.058,7.619-23.235,14.168-39.917,14.168
	C161.213,281.928,155.88,256.76,155.88,237.094"/>
</svg>
