<?xml version="1.0" standalone="no"?>
<!DOCTYPE svg PUBLIC "-//W3C//DTD SVG 20010904//EN"
 "http://www.w3.org/TR/2001/REC-SVG-20010904/DTD/svg10.dtd">
<svg version="1.0" xmlns="http://www.w3.org/2000/svg"
 width="3508.000000pt" height="2480.000000pt" viewBox="0 0 3508.000000 2480.000000"
 preserveAspectRatio="xMidYMid meet">

<g transform="translate(0.000000,2480.000000) scale(0.100000,-0.100000)"
fill="#000000" stroke="none">
<path d="M4615 24518 c-3 -7 -6 -1228 -8 -2713 -2 -2535 -4 -2706 -20 -2805
-48 -284 -114 -466 -232 -646 -168 -253 -423 -403 -765 -449 -512 -70 -1008
98 -1495 508 -38 32 -147 135 -241 229 l-172 170 -393 -438 c-217 -241 -505
-562 -641 -713 l-247 -274 42 -51 c74 -91 369 -380 480 -472 577 -475 1212
-742 1997 -839 176 -22 637 -31 840 -16 1140 83 1976 543 2467 1357 262 433
413 950 463 1578 6 83 10 1099 10 2857 l0 2729 -1040 0 c-823 0 -1042 -3
-1045 -12z"/>
<path d="M18967 24523 c-12 -11 -8 -4567 3 -4778 36 -647 157 -1203 368 -1694
177 -409 407 -747 713 -1046 173 -169 267 -245 459 -373 546 -364 1191 -566
2015 -633 304 -25 831 -13 1155 27 1863 226 3000 1338 3275 3204 61 420 58
280 62 2903 l4 2397 -1018 -2 -1018 -3 -5 -2395 c-6 -2611 -2 -2435 -61 -2729
-119 -596 -411 -1033 -859 -1286 -329 -186 -777 -275 -1230 -245 -701 46
-1195 327 -1506 857 -156 265 -242 543 -306 993 -9 63 -13 683 -17 2445 l-6
2360 -1011 3 c-556 1 -1014 -1 -1017 -5z"/>
<path d="M8212 23298 l3 -1222 2301 -1970 2300 -1971 -2303 -3 -2303 -2 0
-1010 0 -1010 4623 2 4622 3 0 1005 0 1005 -2303 5 -2303 5 2305 1975 2306
1974 0 1218 c0 670 -3 1218 -7 1218 -5 0 -1027 -874 -2273 -1941 -1246 -1068
-2284 -1957 -2307 -1976 l-41 -34 -2306 1975 c-1269 1087 -2309 1976 -2311
1976 -3 0 -4 -550 -3 -1222z"/>
<path d="M17457 13869 c-90 -21 -173 -83 -212 -159 -25 -48 -45 -150 -45 -232
l0 -78 -70 0 -70 0 0 -145 0 -145 70 0 70 0 0 -460 0 -460 175 0 175 0 0 460
0 459 138 3 137 3 3 143 3 142 -141 0 -140 0 0 53 c0 64 27 114 67 123 15 3
33 7 40 9 12 4 96 -8 146 -20 l27 -7 0 145 0 145 -69 16 c-75 17 -241 20 -304
5z"/>
<path d="M12440 13705 l0 -155 185 0 185 0 0 155 0 155 -185 0 -185 0 0 -155z"/>
<path d="M18160 13705 l0 -155 170 0 170 0 0 155 0 155 -170 0 -170 0 0 -155z"/>
<path d="M18640 13705 l0 -155 165 0 165 0 0 155 0 155 -165 0 -165 0 0 -155z"/>
<path d="M8210 12990 l0 -800 175 0 175 0 0 800 0 800 -175 0 -175 0 0 -800z"/>
<path d="M11547 13723 c-4 -3 -7 -75 -7 -160 l0 -153 -75 0 -75 0 0 -150 0
-150 74 0 75 0 3 -347 c3 -338 4 -350 27 -407 34 -85 92 -139 176 -165 119
-37 292 -24 397 30 l38 19 0 141 c0 131 -1 141 -17 134 -83 -34 -168 -44 -218
-25 -50 19 -55 53 -55 350 l0 270 145 0 145 0 0 150 0 150 -145 0 -145 0 0
160 0 160 -168 0 c-93 0 -172 -3 -175 -7z"/>
<path d="M13187 13723 c-4 -3 -7 -75 -7 -160 l0 -153 -75 0 -75 0 0 -150 0
-150 74 0 75 0 3 -347 c3 -338 4 -350 27 -407 34 -85 92 -139 176 -165 119
-37 292 -24 397 30 l38 19 0 141 c0 131 -1 141 -17 134 -83 -34 -168 -44 -218
-25 -50 19 -55 53 -55 350 l0 270 145 0 145 0 0 150 0 150 -145 0 -145 0 0
160 0 160 -168 0 c-93 0 -172 -3 -175 -7z"/>
<path d="M15567 13723 c-4 -3 -7 -75 -7 -160 l0 -153 -75 0 -75 0 0 -150 0
-150 74 0 75 0 3 -347 c3 -338 4 -350 27 -407 34 -85 92 -139 176 -165 119
-37 292 -24 397 30 l38 19 0 141 c0 131 -1 141 -17 134 -83 -34 -168 -44 -218
-25 -50 19 -55 53 -55 350 l0 270 145 0 145 0 0 150 0 150 -145 0 -145 0 0
160 0 160 -168 0 c-93 0 -172 -3 -175 -7z"/>
<path d="M9515 13427 c-69 -23 -108 -48 -172 -110 l-63 -60 0 76 0 77 -175 0
-175 0 0 -610 0 -610 175 0 174 0 3 388 c3 384 3 387 27 435 34 69 85 101 170
105 108 5 183 -47 211 -147 6 -21 10 -190 10 -408 l0 -373 175 0 175 0 0 438
c0 350 -3 449 -15 500 -32 134 -100 222 -213 275 -57 26 -78 31 -166 34 -66 2
-115 -2 -141 -10z"/>
<path d="M20043 13426 c-86 -27 -161 -92 -212 -186 l-31 -55 0 113 0 112 -175
0 -175 0 0 -610 0 -610 175 0 175 0 0 264 c0 145 4 287 10 316 34 177 148 286
312 298 l68 5 0 183 0 184 -52 -1 c-29 0 -72 -6 -95 -13z"/>
<path d="M10628 13415 c-129 -32 -227 -109 -276 -213 -24 -50 -27 -70 -27
-157 0 -81 4 -109 22 -147 47 -103 155 -172 365 -234 185 -54 241 -93 225
-156 -12 -47 -51 -63 -152 -62 -107 1 -182 23 -297 90 -43 24 -79 44 -82 44
-2 0 -37 -50 -76 -112 l-73 -112 29 -23 c43 -36 220 -119 294 -140 101 -27
313 -25 406 4 173 55 268 184 267 363 0 104 -22 161 -87 223 -58 57 -133 95
-296 152 -159 55 -217 86 -226 120 -10 41 3 71 40 89 69 32 182 14 324 -54 46
-22 85 -40 87 -40 4 0 125 220 128 232 3 17 -113 76 -213 109 -79 26 -115 32
-210 35 -79 2 -133 -1 -172 -11z"/>
<path d="M12450 12800 l0 -610 175 0 175 0 0 610 0 610 -175 0 -175 0 0 -610z"/>
<path d="M14070 12981 c0 -249 4 -451 10 -482 15 -78 62 -171 110 -219 23 -23
72 -56 108 -73 63 -30 74 -32 182 -32 104 0 120 3 173 27 33 16 86 54 123 89
l64 62 0 -81 0 -82 175 0 175 0 0 610 0 610 -175 0 -174 0 -3 -387 c-3 -381
-3 -389 -26 -430 -33 -64 -90 -97 -171 -101 -108 -5 -183 47 -211 147 -6 21
-10 188 -10 404 l0 367 -175 0 -175 0 0 -429z"/>
<path d="M18010 12981 c0 -249 4 -451 10 -482 15 -78 62 -171 110 -219 23 -23
72 -56 108 -73 63 -30 74 -32 182 -32 104 0 120 3 173 27 33 16 86 54 123 89
l64 62 0 -81 0 -82 175 0 175 0 0 610 0 610 -175 0 -174 0 -3 -387 c-3 -381
-3 -389 -26 -430 -33 -64 -90 -97 -171 -101 -108 -5 -183 47 -211 147 -6 21
-10 188 -10 404 l0 367 -175 0 -175 0 0 -429z"/>
<path d="M12820 10275 l0 -835 175 0 174 0 3 388 c3 384 3 387 27 435 34 69
85 101 170 105 108 5 183 -47 211 -147 6 -21 10 -190 10 -408 l0 -373 175 0
175 0 0 438 c0 350 -3 449 -15 500 -32 134 -99 221 -213 275 -63 30 -74 32
-182 32 -104 0 -120 -3 -173 -27 -33 -16 -86 -54 -123 -89 l-64 -62 0 301 0
302 -175 0 -175 0 0 -835z"/>
<path d="M14240 10955 l0 -155 185 0 185 0 0 155 0 155 -185 0 -185 0 0 -155z"/>
<path d="M25000 10955 l0 -155 185 0 185 0 0 155 0 155 -185 0 -185 0 0 -155z"/>
<path d="M8190 10240 l0 -800 175 0 175 0 0 517 0 518 223 -338 c122 -185 225
-337 229 -337 4 0 108 152 230 337 l223 337 3 -517 2 -517 175 0 175 0 0 800
0 800 -192 0 -193 -1 -209 -335 -208 -336 -47 74 c-26 40 -121 191 -211 336
l-164 262 -193 0 -193 0 0 -800z"/>
<path d="M18490 10240 l0 -800 575 0 575 0 0 160 0 160 -400 0 -400 0 0 640 0
640 -175 0 -175 0 0 -800z"/>
<path d="M11922 10670 c-110 -29 -195 -75 -275 -151 -84 -78 -137 -162 -173
-274 -22 -65 -27 -100 -27 -190 -1 -185 51 -320 172 -448 124 -129 250 -186
436 -194 197 -9 343 41 469 159 l67 63 -105 104 -104 104 -43 -37 c-77 -65
-143 -91 -234 -91 -67 0 -89 5 -137 28 -67 33 -111 80 -147 157 -22 47 -25 69
-25 150 0 81 3 103 25 150 34 74 81 126 143 158 43 22 64 26 131 26 97 -1 153
-23 223 -88 l49 -46 108 117 108 117 -58 54 c-142 132 -393 187 -603 132z"/>
<path d="M15525 10677 c-69 -23 -108 -48 -172 -110 l-63 -60 0 76 0 77 -175 0
-175 0 0 -610 0 -610 175 0 174 0 3 388 c3 384 3 387 27 435 34 69 85 101 170
105 108 5 183 -47 211 -147 6 -21 10 -190 10 -408 l0 -373 175 0 175 0 0 438
c0 350 -3 449 -15 500 -32 134 -100 222 -213 275 -57 26 -78 31 -166 34 -66 2
-115 -2 -141 -10z"/>
<path d="M16743 10671 c-210 -57 -353 -202 -424 -431 -30 -96 -32 -270 -5
-369 45 -164 170 -323 306 -389 256 -124 569 -86 757 92 l66 62 -103 92 -102
92 -36 -31 c-20 -18 -66 -46 -102 -63 -58 -27 -75 -31 -156 -31 -81 0 -97 3
-149 30 -67 34 -114 89 -138 159 l-16 46 431 0 431 0 -6 128 c-9 206 -59 341
-172 461 -108 114 -217 161 -395 167 -92 3 -129 0 -187 -15z m282 -295 c67
-40 104 -96 129 -198 l6 -28 -261 0 -261 0 7 33 c12 54 65 145 102 173 79 60
195 68 278 20z"/>
<path d="M20233 10671 c-210 -57 -353 -202 -424 -431 -30 -96 -32 -270 -5
-369 45 -164 170 -323 306 -389 256 -124 569 -86 757 92 l66 62 -103 92 -102
92 -36 -31 c-20 -18 -66 -46 -102 -63 -58 -27 -75 -31 -156 -31 -81 0 -97 3
-149 30 -67 34 -114 89 -138 159 l-16 46 431 0 431 0 -6 128 c-9 206 -59 341
-172 461 -108 114 -217 161 -395 167 -92 3 -129 0 -187 -15z m282 -295 c67
-40 104 -96 129 -198 l6 -28 -261 0 -261 0 7 33 c12 54 65 145 102 173 79 60
195 68 278 20z"/>
<path d="M23203 10676 c-86 -27 -161 -92 -212 -186 l-31 -55 0 113 0 112 -175
0 -175 0 0 -610 0 -610 175 0 175 0 0 264 c0 145 4 287 10 316 34 177 148 286
312 298 l68 5 0 183 0 184 -52 -1 c-29 0 -72 -6 -95 -13z"/>
<path d="M24155 10677 c-69 -23 -108 -48 -172 -110 l-63 -60 0 76 0 77 -175 0
-175 0 0 -610 0 -610 175 0 174 0 3 388 c3 384 3 387 27 435 34 69 85 101 170
105 108 5 183 -47 211 -147 6 -21 10 -190 10 -408 l0 -373 175 0 175 0 0 438
c0 350 -3 449 -15 500 -32 134 -100 222 -213 275 -57 26 -78 31 -166 34 -66 2
-115 -2 -141 -10z"/>
<path d="M26275 10677 c-69 -23 -108 -48 -172 -110 l-63 -60 0 76 0 77 -175 0
-175 0 0 -610 0 -610 175 0 174 0 3 388 c3 384 3 387 27 435 34 69 85 101 170
105 108 5 183 -47 211 -147 6 -21 10 -190 10 -408 l0 -373 175 0 175 0 0 438
c0 350 -3 449 -15 500 -32 134 -100 222 -213 275 -57 26 -78 31 -166 34 -66 2
-115 -2 -141 -10z"/>
<path d="M27473 10676 c-149 -36 -285 -145 -348 -278 -145 -305 -37 -671 235
-800 90 -43 156 -58 253 -58 130 0 229 39 328 128 l59 54 0 -65 c0 -217 -136
-321 -399 -304 -114 8 -190 27 -289 72 l-73 34 -8 -22 c-5 -12 -30 -66 -55
-121 -25 -54 -46 -104 -46 -111 0 -7 26 -24 58 -38 166 -74 324 -102 531 -94
231 8 369 56 476 162 60 61 96 124 126 225 23 74 23 86 27 638 l3 562 -175 0
-176 0 0 -71 0 -71 -51 45 c-102 89 -206 128 -344 126 -44 0 -104 -6 -132 -13z
m374 -309 c105 -54 153 -131 153 -249 0 -90 -16 -133 -71 -193 -58 -63 -125
-90 -224 -89 -125 0 -211 49 -263 148 -22 43 -26 64 -26 131 -1 70 3 87 29
134 57 103 156 155 281 147 49 -3 86 -12 121 -29z"/>
<path d="M10440 10665 c-41 -8 -109 -26 -150 -40 -41 -15 -83 -29 -92 -32 -10
-3 -18 -9 -18 -13 0 -4 18 -65 41 -135 37 -118 42 -127 62 -121 170 48 185 50
302 51 106 0 125 -3 168 -24 63 -31 99 -84 105 -157 l5 -54 -29 11 c-57 21
-177 39 -270 39 -236 0 -408 -88 -464 -237 -63 -170 -18 -354 110 -448 68 -50
149 -76 257 -82 143 -9 253 26 361 113 l32 27 0 -62 0 -61 171 0 170 0 -3 433
-3 432 -26 72 c-51 139 -145 228 -288 274 -86 28 -328 36 -441 14z m379 -710
l54 -17 -6 -65 c-7 -87 -41 -136 -122 -178 -51 -26 -69 -30 -139 -30 -129 0
-191 49 -191 150 0 78 48 133 138 156 48 12 205 3 266 -16z"/>
<path d="M21550 10665 c-41 -8 -109 -26 -150 -40 -41 -15 -83 -29 -92 -32 -10
-3 -18 -9 -18 -13 0 -4 18 -65 41 -135 37 -118 42 -127 62 -121 170 48 185 50
302 51 106 0 125 -3 168 -24 63 -31 99 -84 105 -157 l5 -54 -29 11 c-57 21
-177 39 -270 39 -236 0 -408 -88 -464 -237 -63 -170 -18 -354 110 -448 68 -50
149 -76 257 -82 143 -9 253 26 361 113 l32 27 0 -62 0 -61 171 0 170 0 -3 433
-3 432 -26 72 c-51 139 -145 228 -288 274 -86 28 -328 36 -441 14z m379 -710
l54 -17 -6 -65 c-7 -87 -41 -136 -122 -178 -51 -26 -69 -30 -139 -30 -129 0
-191 49 -191 150 0 78 48 133 138 156 48 12 205 3 266 -16z"/>
<path d="M14250 10050 l0 -610 175 0 175 0 0 610 0 610 -175 0 -175 0 0 -610z"/>
<path d="M25010 10050 l0 -610 175 0 175 0 0 610 0 610 -175 0 -175 0 0 -610z"/>
</g>
</svg>
